<svg xmlns="http://www.w3.org/2000/svg" viewBox="0 0 220 220" role="img" aria-labelledby="title desc">
  <title id="title">Kundu Cafe Logo</title>
  <desc id="desc">Classic coffee cup logo with warm cafe colors</desc>
  <defs>
    <linearGradient id="bg" x1="0%" y1="0%" x2="100%" y2="100%">
      <stop offset="0%" stop-color="#3e2417"/>
      <stop offset="100%" stop-color="#a85d2b"/>
    </linearGradient>
    <linearGradient id="cup" x1="0%" y1="0%" x2="100%" y2="100%">
      <stop offset="0%" stop-color="#fff2dc"/>
      <stop offset="100%" stop-color="#ffd8a5"/>
    </linearGradient>
  </defs>

  <circle cx="110" cy="110" r="104" fill="url(#bg)"/>
  <circle cx="110" cy="110" r="95" fill="none" stroke="#f7d7a9" stroke-width="4"/>

  <ellipse cx="110" cy="150" rx="58" ry="12" fill="#2c1b12" opacity="0.3"/>

  <path d="M74 84h72v50c0 12-10 22-22 22H96c-12 0-22-10-22-22z" fill="url(#cup)"/>
  <path d="M147 96h16c12 0 22 10 22 22s-10 22-22 22h-10" fill="none" stroke="#ffd8a5" stroke-width="10" stroke-linecap="round"/>
  <rect x="82" y="74" width="56" height="12" rx="6" fill="#ffe8c7"/>
  <path d="M88 167h44" stroke="#f7d7a9" stroke-width="8" stroke-linecap="round"/>

  <path d="M92 48c-8 10-4 19 1 27" fill="none" stroke="#ffe7c5" stroke-width="5" stroke-linecap="round"/>
  <path d="M110 42c-8 10-4 19 1 27" fill="none" stroke="#ffe7c5" stroke-width="5" stroke-linecap="round"/>
  <path d="M128 48c-8 10-4 19 1 27" fill="none" stroke="#ffe7c5" stroke-width="5" stroke-linecap="round"/>
</svg>
